/* XPM */
static char *fbd8f4fa05fb4631804c51230194fd8cNVBOWKQbbcNFwBt7[] = {
/* columns rows colors chars-per-pixel */
"64 64 51 1 ",
"  c white",
". c black",
"X c black",
"o c black",
"O c black",
"+ c black",
"@ c black",
"# c black",
"$ c black",
"% c black",
"& c black",
"* c black",
"= c black",
"- c black",
"; c #50264C",
": c black",
"> c black",
", c #461942",
"< c black",
"1 c #2E0C2B",
"2 c black",
"3 c #230820",
"4 c #3E1339",
"5 c gray55",
"6 c black",
"7 c black",
"8 c #240821",
"9 c black",
"0 c #797979",
"q c #5B5B5B",
"w c black",
"e c DimGray",
"r c black",
"t c black",
"y c #1A0518",
"u c #391135",
"i c #402A3E",
"p c black",
"a c #452A42",
"s c black",
"d c black",
"f c #464646",
"g c black",
"h c #353535",
"j c None",
"k c black",
"l c black",
"z c black",
"x c black",
"c c black",
"v c black",
/* pixels */
"                                                                ",
"                                                                ",
"                                                                ",
"                                                                ",
"                                                                ",
"               @#$$$$$$$$$$$$$$$$$$$$$$$$$$$$$$$#%              ",
"              &**********************************=%             ",
"             @************************************#             ",
"             -**;*********************************:             ",
"             >**,**********************************             ",
"             >**,**********************************             ",
"             >**,**********************************             ",
"             >**,**********************************             ",
"             <**1**********************************             ",
"             2**3**********************************             ",
"             2**3**********************************             ",
"             2**3**********************************             ",
"             2**3**********************************             ",
"             2**3**********************************             ",
"             2**3**********************************             ",
"             2**3**********************************             ",
"             2**3****************444444444444444**:             ",
"             2**3****************455555555555555**&             ",
"             2**3****************455555555555555**&             ",
"             2**3****************444444444444444**&             ",
"             2**3******************************4**&             ",
"             2**3*********************************6             ",
"             2**3********************************$              ",
"             2**3********************************$              ",
"             2**3********************************$              ",
"             2**3********************************7              ",
"             2**3********************************7              ",
"             2**3********************************7              ",
"             2**3********************************7              ",
"             2**3********************************7              ",
"             2**3********************************7              ",
"             2**3*****************************8**9              ",
"             2**3****************4000000000000q**w              ",
"             2**3****************4555555555555e**r              ",
"             2**3****************4555555555555e***t             ",
"             2**3****************yyyyyyyyyyyyyui**:             ",
"             2**3**********************************             ",
"             2**3**********************************             ",
"             2**3**********************************             ",
"             2**3**********************************             ",
"             2**3**********************************             ",
"             2**3**********************************             ",
"             2**3**********************************             ",
"             2**3**********************************             ",
"             2**3**********************************             ",
"             2**3**********************************             ",
"             2**3**********************************             ",
"             2**3**********************************             ",
"             &**4*********************************p             ",
"             6**a4444444444444444444444444444444**s             ",
"             d**f5555555555555555555555555555555**&             ",
"             d**f5555555555555555555555555555555**&             ",
"             d**f5555555555555555555555555555555**&             ",
"             g**heeeeeeeeeeeeeeeeeeeeeeeeeeeeeee**w             ",
"              j***********************************k             ",
"              lj*********************************z              ",
"                xsssssssssssssssssssssssssssssssk               ",
"                                                                ",
"                                                                "
};
