/* XPM */
static char *_4cad9ae442d444dff03f2177085bbdc0d9YGB8NlayE9xEK[] = {
/* columns rows colors chars-per-pixel */
"64 64 101 2 ",
"   c white",
".  c black",
"X  c black",
"o  c black",
"O  c black",
"+  c black",
"@  c black",
"#  c black",
"$  c black",
"%  c black",
"&  c black",
"*  c black",
"=  c black",
"-  c #4D1D48",
";  c #481843",
":  c black",
">  c black",
",  c #3A1E37",
"<  c black",
"1  c #3F123A",
"2  c #261924",
"3  c black",
"4  c #452041",
"5  c black",
"6  c black",
"7  c black",
"8  c black",
"9  c black",
"0  c #260822",
"q  c #0C020B",
"w  c black",
"e  c black",
"r  c #4C2047",
"t  c black",
"y  c #1B0519",
"u  c #4C1F47",
"i  c black",
"p  c #4E1F49",
"a  c #0E0E0E",
"s  c black",
"d  c #310C2D",
"f  c #4B1B46",
"g  c #130312",
"h  c #350E30",
"j  c #2B0A28",
"k  c #41143C",
"l  c gray55",
"z  c #2A1B28",
"x  c #585858",
"c  c #090909",
"v  c #848484",
"b  c gray49",
"n  c #2C2C2C",
"m  c #1D061A",
"M  c gray38",
"N  c gray7",
"B  c gray24",
"V  c DimGray",
"C  c black",
"Z  c gray10",
"A  c black",
"S  c black",
"D  c #464646",
"F  c black",
"G  c #727272",
"H  c black",
"J  c #232323",
"K  c black",
"L  c gray31",
"P  c #020002",
"I  c black",
"U  c #7B7B7B",
"Y  c #4A1F46",
"T  c black",
"R  c #482044",
"E  c #4A1A45",
"W  c black",
"Q  c black",
"!  c black",
"~  c black",
"^  c black",
"/  c black",
"(  c black",
")  c black",
"_  c #353535",
"`  c black",
"'  c None",
"]  c black",
"[  c black",
"{  c black",
"}  c black",
"|  c black",
" . c black",
".. c black",
"X. c black",
"o. c black",
"O. c black",
"+. c black",
"@. c black",
"#. c black",
"$. c black",
/* pixels */
"                                                                                                                                ",
"                                                                                                                                ",
"                                                                                                                                ",
"                                                                                                                                ",
"              . X o o o o o o o o o o o o o o o o X O                   + X o o o o o o o o o o o o o o o X +                   ",
"            @ # # # # # # # # # # # # # # # # # # # # $               % & # # # # # # # # # # # # # # # # # & %                 ",
"          . # # # # # # # # # # # # # # # # # # # # # # *             & # # # # # # # # # # # # # # # # # # # &                 ",
"          = # # - # # # # # # # # # # # # # # # # ; # # : +         > # # , # # # # # # # # # # # # # # # , # # >               ",
"          < # # 1 # # # # # # # # # # # # # # # # # 2 # # $         3 # # 4 # # # # # # # # # # # # # # # 4 # # 3               ",
"          < # # 1 # # # # # # # # # # # # # # # # # # # # # 5       3 # # 4 # # # # # # # # # # # # # # # 4 # # 3               ",
"          < # # 1 # # # # # # # # # # # # # # # # # # ; # # 6 7     3 # # 4 # # # # # # # # # # # # # # # 4 # # 3               ",
"          < # # 1 # # # # # # # # # # # # # # # # # # # 2 # # 8     3 # # 4 # # # # # # # # # # # # # # # 4 # # 3               ",
"          9 # # 0 # # # # # # # # # # # # # # # # # # # q # # # w   e # # r # # # # # # # # # # # # # # # r # # e               ",
"          t # # y # # # # # # # # # # # # # # # # # # # # u # # i   * # # p # # # # # # # # # # # # # # # p # # *               ",
"          t # # y # # # # # # # # # # # # # # # # # # # # # a # # s * # # p # # # # # # # # # # # # # # # p # # *               ",
"          t # # y # # # # # # # # # # # # # # # # # # # # # d # # # * # # p # # # # # # # # # # # # # # # p # # *               ",
"          t # # y # # # # # # # # # # # # # # # # # # # # # # 4 # # i # # p # # # # # # # # # # # # # # # p # # *               ",
"          t # # y # # # # # # # # # # # # # # # # # # # # # # # a # # # # p # # # # # # # # # # # # # # # p # # *               ",
"          t # # y # # # # # # # # # # # # # # # # # # # # # # # 1 # # # # p # # # # # # # # # # # # # # # p # # *               ",
"          t # # y # # # # # # # # # # # # # # # # # # # # # # # # , # # # p # # # # # # # # # # # # # # # p # # *               ",
"          t # # y # # # # # # # # # # # # # # # # # # # # # # # # # # # # p # # # # # # # # # # # # # # # p # # *               ",
"          t # # y # # # # # # # # # # # # # # # # # # # # # # # # # ; # # p # # # # # # # # # # # # # # # p # # *               ",
"          t # # y # # # # # # # # # # # # # # # # # # # # # # # # # # 2 # p # # # # # # # # # # # # # # # p # # *               ",
"          t # # y # # # # # # # # # # # # # # # # # # # # # # # # # # # # p # # # # # # # # # # # # # # # p # # *               ",
"          t # # y # # # # # # # # # # # # # # # # # # # # # # # # # # # u p # # # # # # # # # # # # # # # p # # *               ",
"          t # # y # # # # # # # # # # # # # # # # # # # # # # # # # # # # f # # # # # # # # # # # # # # # p # # *               ",
"          t # # y # # # # # # # # # # # # # # # # # # # # # # # # # # # # # # # # # # # # # # # # # # # # p # # *               ",
"          t # # y # # # # # # # # # # # # # # # # # # # # # # # # # # # # # # # # # # # # # # # # # # # # p # # *               ",
"          t # # y # # # # # # # # # # # # # # # # # # # # # # # # # # # # # # # # # # # # # # # # # # # # p # # *               ",
"          t # # y # # # # # # # # # # # # # # # # # # # # # # # # # # # # # # # # # # # # # # # # # # # # p # # *               ",
"          t # # y # # # # # # # # # # # # # # # # # # # # # # # # # # # # # # # # # # # # # # # # # # # # p # # *               ",
"          t # # y # # # # # # # # # # # # # # # # # # # # # # # # # # # # # # # # # # # # # # # # # # # # p # # *               ",
"          t # # y # # # # # # # # # # # # # # # # # # # # # # # # # # # # # # # # # # # # # # # # # # # # p # # *               ",
"          t # # y # # # # # # # # # # # # # # # # # # # # # # # # # # # # # # # # # # # # # # # # # # # # p # # *               ",
"          t # # y # # # # # # # # # # # # # # # g # # # # # # # # # # # # # # # # # # # # # # # # # # # # p # # *               ",
"          t # # y # # # # # # # # # # # # # # # h # # # # # # # # # # # # # # # # # # # # # # # # # # # # p # # *               ",
"          t # # y # # # # # # # # # # # # # # # h j # # # # # # # # # # # # # # # # # # # # # # # # # # # p # # *               ",
"          t # # y # # # # # # # # # # # # # # # h h q # # # # # # # # # # # # # # # # # # # # # # # # # # p # # *               ",
"          t # # y # # # # # # # # # # # # # # # k l h # # # # # # # # # # # # # # # # # # # # # # # # # # p # # *               ",
"          t # # y # # # # # # # # # # # # # # # z l h 0 # # # # # # # # # # # # # # # # # # # # # # # # # p # # *               ",
"          t # # y # # # # # # # # # # # # # # # # x l h # # # # # # # # # # # # # # # # # # # # # # # # # p # # *               ",
"          t # # y # # # # # # # # # # # # # # # # c v b h # # # # # # # # # # # # # # # # # # # # # # # # p # # *               ",
"          t # # y # # # # # # # # # # # # # # # # # n l h m # # # # # # # # # # # # # # # # # # # # # # # p # # *               ",
"          t # # y # # # # # # # # # # # # # # # # # # M l h # # # # # # # # # # # # # # # # # # # # # # # p # # *               ",
"          t # # y # # # # # # # # # # # # # # # # # # N v b h # # # # # # # # # # # # # # # # # # # # # # p # # *               ",
"          t # # y # # # # # # # # # # # # # # # # # # # B l h g # # # # # # # # # # # # # # # # # # # # # p # # *               ",
"          t # # y # # # # # # # # # # # # # # # # # # # # V l h # # # # # # # # # # # # # # # # # # # # # p # # *               ",
"          t # # y # # # # # # # # # # # # # # # # # C # # Z l b j # # # # # # # # # # # # # # # # # # # # p # # *               ",
"          t # # y # # # # # # # # # # # # # # # # # A S # # D l h g # # # # # # # # # # # # # # # # # # # p # # *               ",
"          t # # y # # # # # # # # # # # # # # # # # A F # # # G l h # # # # # # # # # # # # # # # # # # # p # # *               ",
"          t # # y # # # # # # # # # # # # # # # # # A   H # # J l h j # # # # # # # # # # # # # # # # # # p # # *               ",
"          t # # y # # # # # # # # # # # # # # # # # A     K # # L l h P # # # # # # # # # # # # # # # # # p # # *               ",
"          @ # # h # # # # # # # # # # # # # # # # # I     % # # c U l h # # # # # # # # # # # # # # # # # Y # # 5               ",
"          T # # R h h h h h h h h h h h h h h E # # W       Q # # J l b h h h h h h h h h h h h h h h h h z # # !               ",
"          ~ # # D l l l l l l l l l l l l l l V # # ^       / K # # M l l l l l l l l l l l l l l l l l l J # # !               ",
"          ~ # # D l l l l l l l l l l l l l l V # # ^         ( # # c v l l l l l l l l l l l l l l l l l J # # !               ",
"          ~ # # D l l l l l l l l l l l l l l V # # ^           ) # # _ l l l l l l l l l l l l l l l l l J # # !               ",
"          / # # _ V V V V V V V V V V V V V V L # # F           ` ' # # x V V V V V V V V V V V V V V V V Z # # ]               ",
"            [ # # # # # # # # # # # # # # # # # # # {             } # # # # # # # # # # # # # # # # # # # # # |                 ",
"            ( [ # # # # # # # # # # # # # # # # #  .                ..# # # # # # # # # # # # # # # # # # # | ~                 ",
"                X.............................o.{                   O.+.@.................................#.                    ",
"                O ^ ^ ^ ^ ^ ^ ^ ^ ^ ^ ^ ^ ^ ^ F                       $.^ ^ ^ ^ ^ ^ ^ ^ ^ ^ ^ ^ ^ ^ ^ ^ ^ ]                     ",
"                $.F F F F F F F F F F F F F F `                         #.F F F F F F F F F F F F F F F F {                     ",
"                                                                                                                                "
};
