/* XPM */
static char *_5a42e6f8a4d487499546a4d977480579DvJZB2JhG1FK8mD[] = {
/* columns rows colors chars-per-pixel */
"64 64 135 2 ",
"   c white",
".  c black",
"X  c black",
"o  c black",
"O  c black",
"+  c black",
"@  c black",
"#  c black",
"$  c black",
"%  c black",
"&  c black",
"*  c black",
"=  c black",
"-  c black",
";  c black",
":  c black",
">  c black",
",  c black",
"<  c black",
"1  c black",
"2  c #040003",
"3  c #44183F",
"4  c #1E0C1B",
"5  c black",
"6  c black",
"7  c #3D1739",
"8  c #340D30",
"9  c #180416",
"0  c #451640",
"q  c #30132D",
"w  c black",
"e  c black",
"r  c black",
"t  c black",
"y  c #3F123A",
"u  c black",
"i  c black",
"p  c black",
"a  c #270824",
"s  c black",
"d  c black",
"f  c #461842",
"g  c #090909",
"h  c black",
"j  c #461742",
"k  c #2B0A27",
"l  c gray10",
"z  c black",
"x  c #060105",
"c  c #6C6C6C",
"v  c black",
"b  c gray31",
"n  c black",
"m  c gray48",
"M  c #240821",
"N  c gray55",
"B  c #150413",
"V  c #585858",
"C  c black",
"Z  c #2C2C2C",
"A  c black",
"S  c #0E020D",
"D  c #320C2E",
"F  c black",
"G  c black",
"H  c black",
"J  c #380F34",
"K  c #41133D",
"L  c black",
"P  c black",
"I  c #44153F",
"U  c gray38",
"Y  c black",
"T  c #130311",
"R  c #3D173A",
"E  c black",
"W  c black",
"Q  c black",
"!  c #353535",
"~  c #848484",
"^  c #464646",
"/  c #727272",
"(  c black",
")  c black",
"_  c black",
"`  c black",
"'  c black",
"]  c #1E061C",
"[  c black",
"{  c black",
"}  c gray11",
"|  c gray3",
" . c DimGray",
".. c #7B7B7B",
"X. c #232323",
"o. c #200C1E",
"O. c #471842",
"+. c black",
"@. c black",
"#. c black",
"$. c black",
"%. c gray36",
"&. c black",
"*. c #41133C",
"=. c black",
"-. c black",
";. c gray24",
":. c black",
">. c black",
",. c None",
"<. c black",
"1. c black",
"2. c black",
"3. c black",
"4. c gray7",
"5. c black",
"6. c black",
"7. c black",
"8. c black",
"9. c black",
"0. c black",
"q. c black",
"w. c black",
"e. c black",
"r. c black",
"t. c black",
"y. c black",
"u. c black",
"i. c black",
"p. c black",
"a. c black",
"s. c black",
"d. c black",
"f. c black",
"g. c black",
/* pixels */
"                                                                                                                                ",
"                                                                                                                                ",
"                                                          . X X X X X X o                                                       ",
"                                                  O + @ # $ $ $ $ $ $ $ $ $ % & * =                                             ",
"                                            O - ; $ $ $ $ $ $ $ $ $ $ $ $ $ $ $ $ $ : > ,                                       ",
"                                        < 1 $ $ $ $ $ 2 2 2 3 3 3 3 3 3 4 2 2 $ $ $ $ $ $ 1 *                                   ",
"                                    5 6 $ $ $ 2 2 7 8 $ $ $ $ $ $ $ $ $ $ $ $ 9 0 q 2 $ $ $ $ : w                               ",
"                                  < e $ $ 2 4 8 $ $ $ $ $ $ $ $ $ $ $ $ $ $ $ $ $ $ $ 0 4 2 $ $ $ 1 r                           ",
"                                t $ $ $ 2 y $ $ $ $ $ $ $ $ $ $ $ $ $ $ $ $ $ $ $ $ $ $ $ 9 q 2 $ $ 1                           ",
"                              < $ $ 2 4 $ $ $ $ $ $ $ $ $ $ $ $ $ $ $ $ $ $ $ $ $ $ $ $ $ $ $ 8 4 $ $ o                         ",
"                            5 e $ 2 7 $ $ $ $ $ $ $ $ $ $ $ $ $ $ $ $ $ $ $ $ $ $ $ $ $ $ $ $ $ 7 $ $ u                         ",
"                            i $ $ 4 $ $ $ $ $ $ $ $ $ $ $ $ $ $ $ $ $ $ $ $ $ $ $ $ $ $ $ $ $ $ 2 $ ;                           ",
"                          p $ $ 2 $ $ $ $ $ $ $ $ $ $ $ $ $ $ $ $ $ $ $ $ $ $ $ $ $ $ $ $ $ $ a 2 $ -                           ",
"                          - $ 2 0 $ $ $ $ $ $ $ $ $ $ $ $ $ $ $ $ $ $ $ $ $ $ $ $ $ $ $ $ $ $ 7 $ $ s                           ",
"                        d $ $ 2 $ $ $ $ $ $ $ $ $ $ $ $ $ $ $ $ $ $ $ $ $ $ $ $ $ $ $ $ $ $ $ f g $ $ h                         ",
"                        * $ $ j $ $ $ $ $ $ $ $ $ $ $ $ $ $ $ $ $ $ $ $ $ $ $ $ $ $ $ $ $ $ $ k l $ $ z                         ",
"                        & $ $ 9 $ $ $ $ $ $ $ $ $ $ $ $ $ $ $ $ $ $ $ $ $ $ $ $ $ $ $ $ $ $ x c $ $ v                           ",
"                        % $ 2 $ $ $ $ $ $ $ $ $ $ $ $ $ $ $ $ $ $ $ $ $ $ $ $ $ $ $ $ $ $ $ k b $ $ n                           ",
"                        $ $ 2 $ $ $ $ $ $ $ $ $ $ $ $ $ $ $ $ $ $ $ $ $ $ $ $ $ $ $ $ $ $ $ k l $ $ z                           ",
"                        $ $ 2 $ $ $ $ $ $ $ $ $ $ $ $ $ $ $ $ $ k k m k k k x $ $ $ $ $ $ x c $ $ v                             ",
"                        $ $ 2 $ $ $ $ $ $ $ $ $ $ $ $ $ $ $ $ $ M k N N N N k k B $ $ $ $ k V $ $ C                             ",
"                        $ $ 2 $ $ $ $ $ $ $ $ $ $ $ $ $ $ $ $ $ $ M k m N N N N k k x $ $ k Z $ $ A                             ",
"                        $ $ 2 $ $ $ $ $ $ $ $ $ $ $ $ $ $ $ $ $ $ $ $ k k N N N N N k M S D $ $ F                               ",
"                        G $ 2 $ $ $ $ $ $ $ $ $ $ $ $ $ $ $ $ $ $ $ $ $ B k k N N N N N N V $ $ C                               ",
"                        H $ 2 $ $ $ $ $ $ $ $ $ $ $ $ $ $ $ $ $ $ $ $ $ $ $ J K k N N N N Z $ $ A                               ",
"                        L $ 2 $ $ $ $ $ $ $ $ $ $ $ $ $ $ $ $ $ $ $ $ $ $ $ $ $ y K m N N $ $ F                                 ",
"                        P $ $ M $ $ $ $ $ $ $ $ $ $ $ $ $ $ $ $ $ $ $ $ $ $ $ $ $ $ I D U $ $ Y                                 ",
"                        i $ $ k $ $ $ $ $ $ $ $ $ $ $ $ $ $ $ $ $ $ $ $ $ $ $ $ $ $ $ T R 2 $ $ i                               ",
"                        E $ $ c k $ $ $ $ $ $ $ $ $ $ $ $ $ $ $ $ $ $ $ $ $ $ $ $ $ $ $ $ 7 2 $ $ i                             ",
"                        Y $ $ U k B $ $ $ $ $ $ $ $ $ $ $ $ $ $ $ $ $ $ $ $ $ $ $ $ $ $ $ $ 0 2 $ $ W                           ",
"                        Q $ $ ! N k B $ $ $ $ $ $ $ $ $ $ $ $ $ $ $ $ $ $ $ $ $ $ $ $ $ $ $ $ 0 2 $ e 5                         ",
"                        h $ $ g ~ N k M $ $ $ $ $ $ $ $ $ $ $ $ $ $ $ $ $ $ $ $ $ $ $ $ $ $ $ $ q $ $ +                         ",
"                          s $ $ ^ N N k k $ $ $ $ $ $ $ $ $ $ $ $ $ $ $ $ $ $ $ $ $ $ $ $ $ $ $ $ 2 $ ;                         ",
"                          Q $ $ $ / N N m k k $ $ $ $ $ $ $ $ $ $ $ $ $ $ $ $ $ $ $ $ $ $ $ $ $ $ 7 $ $ (                       ",
"                            ) $ $ l ~ N N N m k k S $ $ $ $ $ $ $ $ $ $ $ $ $ $ $ $ $ $ $ $ $ $ $ a $ $ _                       ",
"                            ` ' $ $ l ~ N N N N N k k ] $ $ $ $ $ $ $ $ $ $ $ $ $ $ $ $ $ $ $ $ $ $ 2 $ [                       ",
"                            { $ $ } $ |  .N N N N N N m k ] $ $ $ $ $ $ $ $ $ $ $ $ $ $ $ $ $ $ $ $ 2 $ $                       ",
"                            : $ 2 x $ q 2 ! ..N N N N N N k k $ $ $ $ $ $ $ $ $ $ $ $ $ $ $ $ $ $ $ 2 $ $                       ",
"                          p $ $ q $ $ $ 8 4 2 !  .N N N N N m k $ $ $ $ $ $ $ $ $ $ $ $ $ $ $ $ $ $ 2 $ $                       ",
"                          - $ 2 y $ $ $ $ $ 8 4 2 X.U N N N N k ] $ $ $ $ $ $ $ $ $ $ $ $ $ $ $ $ $ 2 $ $                       ",
"                          ; $ 2 $ $ $ $ $ $ $ $ 9 j 4 o.O.k k M $ $ $ $ $ $ $ $ $ $ $ $ $ $ $ $ $ $ 2 $ $                       ",
"                        ( $ $ 7 $ $ $ $ $ $ $ $ $ $ $ $ $ $ $ $ $ $ $ $ $ $ $ $ $ $ $ $ $ $ $ $ $ $ 2 $ :                       ",
"                        +.$ 2 a $ $ $ $ $ $ $ $ $ $ $ $ $ $ $ $ $ $ $ $ $ $ $ $ $ $ $ $ $ $ $ $ $ $ 2 $ @.                      ",
"                      d $ $ 2 $ $ $ $ $ $ $ $ $ $ $ $ $ $ $ $ $ $ $ $ $ $ $ $ $ $ $ $ $ $ $ $ $ $ x $ $ #.                      ",
"                      { $ $ j $ $ $ $ $ $ $ $ $ $ $ $ $ $ $ $ $ $ $ $ $ $ $ $ $ $ $ $ $ $ $ $ $ $ k $ $ i                       ",
"                      1 $ 2 x $ $ $ $ $ $ $ $ $ $ $ $ $ $ $ $ $ $ $ $ $ $ $ $ $ $ $ $ $ $ $ $ $ $ k $ $ i                       ",
"                    $.$ $ 4 $ $ $ $ $ $ $ $ $ $ $ $ $ $ $ $ $ $ $ $ $ $ $ $ $ $ $ $ $ $ $ $ $ $ M %.$ $ &.                      ",
"                    > $ $ y $ $ $ $ $ $ $ $ $ $ $ $ $ $ $ $ $ $ $ $ $ $ $ $ $ $ $ $ $ $ $ $ $ B k b $ $ n                       ",
"                    % $ $ $ $ $ $ $ $ $ $ $ $ $ $ $ $ $ $ $ $ $ $ $ $ $ $ $ $ $ $ $ $ $ $ $ $ k N Z $ $ A                       ",
"                    > $ $ 8 $ $ $ $ $ $ $ $ $ $ $ $ $ $ $ $ $ $ $ $ $ $ $ $ $ $ $ $ $ $ $ $ k m ~ $ $ F                         ",
"                    O $ $ 2 *.$ $ $ $ $ $ $ $ $ $ $ $ $ $ $ $ $ $ $ $ $ $ $ $ $ $ $ $ $ B k m N ^ $ $ C                         ",
"                    h $ $ g m k M $ $ $ $ $ $ $ $ $ $ $ $ $ $ $ $ $ $ $ $ $ $ $ $ $ $ M k N N ..g $ $ =.                        ",
"                    -.$ $ ;.N N m k k ] $ $ $ $ $ $ $ $ $ $ $ $ $ $ $ $ $ $ $ $ $ M k m N N N l $ $ s                           ",
"                    ) $ $ / N N N N N m k k k S $ $ $ $ $ $ $ $ $ $ $ $ $ $ B k k m N N N N ! $ $ :.Q                           ",
"                    >.$ $ ^ ~ N N N N N N N N m m k k k k k k k k k k k k m m N N N N N N ! $ $ ,.>.                            ",
"                    =.$ $ $ g ^ ~ N N N N N N N N N N N N N N N N N N N N N N N N N N ..l $ $ ,.<.                              ",
"                      ) $ $ $ $ g ! / N N N N N N N N N N N N N N N N N N N N N N ~ ^ g $ $ ,.1.2.                              ",
"                        Q 3.$ $ $ $ $ 4.;. .N N N N N N N N N N N N N N N N N ..^ g $ $ $ 5.6.7.                                ",
"                          8.9.:.$ $ $ $ $ $ $ X.^ V  ...N N N N N N N  .V ;.l $ $ $ $ $ :.9.0.                                  ",
"                          $.q.&.w.e.r.$ $ $ $ $ $ $ $ $ $ $ $ $ $ $ $ $ $ $ $ $ $ $ :.9.&.0.                                    ",
"                            2.$.q.&.&.{ e.t.# $ $ $ $ $ $ $ $ $ $ $ $ $ $ $ $ 5.6.y.&.t 7.                                      ",
"                                2.0.8.&.&.&.&.u.6.i.t.p.a.a.a.a.a.a.a.t.i.e.s.&.&.q.$.2.                                        ",
"                                      d.f.n &.&.&.&.&.&.&.&.&.&.&.&.&.&.&.&.&.t $.2.                                            ",
"                                              z $.g.n t &.&.&.&.&.&.&.n g.f.7.                                                  "
};
