/* XPM */
static char *_9284e18235b4b46e3166e5ffd802cfcae1PNNOFQWwtDSq8[] = {
/* columns rows colors chars-per-pixel */
"64 64 99 2 ",
"   c white",
".  c black",
"X  c black",
"o  c black",
"O  c black",
"+  c black",
"@  c black",
"#  c black",
"$  c black",
"%  c black",
"&  c black",
"*  c #080007",
"=  c black",
"-  c #200B1E",
";  c #060105",
":  c black",
">  c black",
",  c black",
"<  c None",
"1  c black",
"2  c black",
"3  c #270823",
"4  c black",
"5  c #32122F",
"6  c #3E163A",
"7  c black",
"8  c black",
"9  c #471743",
"0  c black",
"q  c #461541",
"w  c #3E1139",
"e  c #451740",
"r  c black",
"t  c #330D2F",
"y  c black",
"u  c #180416",
"i  c black",
"p  c black",
"a  c #090909",
"s  c #2A0926",
"d  c black",
"f  c black",
"g  c #3C1138",
"h  c black",
"j  c black",
"k  c #464646",
"l  c black",
"z  c #2C2C2C",
"x  c #240721",
"c  c #0C020B",
"v  c #41133C",
"b  c black",
"n  c #3E3E3E",
"m  c black",
"M  c #232323",
"N  c black",
"B  c black",
"V  c #160414",
"C  c gray49",
"Z  c #5D5D5D",
"A  c #1C051A",
"S  c black",
"D  c #451540",
"F  c #380E33",
"G  c black",
"H  c gray21",
"J  c #471742",
"K  c black",
"L  c gray10",
"P  c #2F2F2F",
"I  c black",
"U  c #310C2D",
"Y  c gray7",
"T  c #565656",
"R  c gray24",
"E  c gray55",
"W  c #727272",
"Q  c DimGray",
"!  c black",
"~  c gray31",
"^  c black",
"/  c #7B7B7B",
"(  c black",
")  c black",
"_  c black",
"`  c black",
"'  c black",
"]  c black",
"[  c black",
"{  c black",
"}  c black",
"|  c black",
" . c black",
".. c black",
"X. c black",
"o. c black",
"O. c black",
"+. c black",
"@. c black",
/* pixels */
"                                                                                                                                ",
"                                                                                                                                ",
"                                                                                                                                ",
"                                                                                                                                ",
"                                                                                                                                ",
"                                                                                                                                ",
"                                                                                                                                ",
"                                                                                                                                ",
"                                                                                                                                ",
"                                                                                                                                ",
"                                                                                                                                ",
"        . X o o o o o o o o o o o o o X O +       + O X o o o o o o o o o X @ #       + O X o o o o o o o o o o o o o X .       ",
"      . o o o o o o o o o o o o o o o o o $ +   + $ o o o o o o o o o o o o o % #   + $ o o o o o o o o o o o o o o o o o .     ",
"      & o * * * * * * * * * * * * * * * o o O   O o o * * * * * * * * * * * o o @   O o o * * * * * * * * * * * * * * * o X     ",
"    = o o - o o o o o o o o o o o o o ; * o :   > o * ; o o o o o o o o o o * o X   : o * ; o o o o o o o o o o o o o * o o     ",
"      & o * o o o o o o o o o o o o o o * o ,   < o * o o o o o o o o o o o * o o   , o * o o o o o o o o o o o o o o * o 1     ",
"      2 o o 3 o o o o o o o o o o o o o - o o 4 o o 5 o o o o o o o o o o o 6 o o 7 o o - o o o o o o o o o o o o o 3 o o 2     ",
"      8 o o 9 o o o o o o o o o o o o o 9 o o 0 o o q o o o o o o o o o o o w o o O o o e o o o o o o o o o o o o o 9 o o 8     ",
"      r o o - o o o o o o o o o o o o o t o o y o * u o o o o o o o o o o o ; * o : o o t o o o o o o o o o o o o o - o o i     ",
"    p o o a s o o o o o o o o o o o o o o * o , o * o o o o o o o o o o o o o * o d o * ; o o o o o o o o o o o o o s o o f     ",
"      r o o g o o o o o o o o o o o o o o * o o o - o o o o o o o o o o o o o 5 o o o * o o o o o o o o o o o o o o g o o h     ",
"      j o o k ; o o o o o o o o o o o o o 5 o o o 9 o o o o o o o o o o o o o q o o o 5 o o o o o o o o o o o o o ; k o o j     ",
"      l o o z x o o o o o o o o o o o o o q o o o 3 o o o o o o o o o o o o o u o o o 9 o o o o o o o o o o o o o x z o o l     ",
"      p o o a s o o o o o o o o o o o o o 3 o o * o o o o o o o o o o o o o o o * o o t o o o o o o o o o o o o o s a o o p     ",
"        r o o g o o o o o o o o o o o o o o * o * o o o o o o o o o o o o o o o - o * o o o o o o o o o o o o o o g o o r       ",
"        j o o k c o o o o o o o o o o o o o * o e o o o o o o o o o o o o o o o 9 o * o o o o o o o o o o o o o ; k o o j       ",
"        l o o z s o o o o o o o o o o o o o 6 o t o o o o o o o o o o o o o o o t o 6 o o o o o o o o o o o o o x z o o l       ",
"        p o o a s o o o o o o o o o o o o o q * o o o o o o o o o o o o o o o o o * q o o o o o o o o o o o o o s a o o p       ",
"          r o o v o o o o o o o o o o o o o u * o o o o o o o o o o o o o o o o o * 3 o o o o o o o o o o o o o g o o r         ",
"          b o o n c o o o o o o o o o o o o o 6 o o o o o o o o o o o o o o o o o e o o o o o o o o o o o o o c k o o j         ",
"          m o o M s o o o o o o o o o o o o o w o o o o o o o o o o o o o o o o o t o o o o o o o o o o o o o s z o o l         ",
"            N o o s o o o o o o o o o o o o o o o o o o o o o o o o o o o o o o o o o o o o o o o o o o o o o s a o o p         ",
"            B o o v o o o o o o o o o o o o o o o o o o o o o o o o o o o o o o o o o o o o o o o o o o o o o v o o r           ",
"            b o o n c o o o o o o o o o o o o o o o o o o o o o o o o o o o o o o o o o o o o o o o o o o o c n o o b           ",
"            m o o M s o o o o o o o o o o o o o o o o o o o o o c o o o o o o o o o o o o o o o o o o o o o s M o o m           ",
"              N o o s o o o o o o o o o o o o o o o o o o o o o s o o o o o o o o o o o o o o o o o o o o o s o o N             ",
"              B o o v o o o o o o o o o o o o o o o o o o o o o s o o o o o o o o o o o o o o o o o o o o o v o o B             ",
"              b o o n V o o o o o o o o o o o o o o o o o o o o C o o o o o o o o o o o o o o o o o o o o c n o o b             ",
"              m o o M s o o o o o o o o o o o o o o o o o o o V Z A o o o o o o o o o o o o o o o o o o o s M o o m             ",
"                N o o s o o o o o o o o o o o o o o o o o o o s M s o o o o o o o o o o o o o o o o o o o s o o N               ",
"                S o o D o o o o o o o o o o o o o o o o o o o F o F o o o o o o o o o o o o o o o o o o o v o o B               ",
"                G o o H V o o o o o o o o o o o o o o o o o o J o J o o o o o o o o o o o o o o o o o o c n o o b               ",
"                K o o L s o o o o o o o o o o o o o o o o o c H o P V o o o o o o o o o o o o o o o o o s M o o m               ",
"                  I o o U o o o o o o o o o o o o o o o o o s L o Y s o o o o o o o o o o o o o o o o o s o o N                 ",
"                  S o o D o o o o o o o o o o o o o o o o o U o o o U o o o o o o o o o o o o o o o o o v o o B                 ",
"                  G o o H V o o o o o o o o o o o o o o o o D o o o D o o o o o o o o o o o o o o o o c n o o b                 ",
"                  K o o L s o o o o o o o o o o o o o o o c H o o o H c o o o o o o o o o o o o o o o s M o o m                 ",
"                    I o o U o o o o o o o o o o o o o o o x M o o o L s o o o o o o o o o o o o o o o s o o N                   ",
"                    S o o D o o o o o o o o o o o o o o o s o o N o o U o o o o o o o o o o o o o o o v o o B                   ",
"                    G o o H A o o o o o o o o o o o o o o v o o B o o v o o o o o o o o o o o o o o c n o o b                   ",
"                    K o o L s o o o o o o o o o o o o o ; n o o b o o n c o o o o o o o o o o o o o s M o o m                   ",
"                      I o o U o o o o o o o o o o o o o A M o o m o o M x o o o o o o o o o o o o o s o o N                     ",
"                      S o o T s s s s s s s s s s s s s s a o o p N o o s s s s s s s s s s s s s s Z o o B                     ",
"                      G o o R E E E E E E E E E E E E E W o o r   B o o Q E E E E E E E E E E E E E k o o b                     ",
"                      ! o o Y E E E E E E E E E E E E E ~ o o j   b o o k E E E E E E E E E E E E E M o o m                     ",
"                        ^ o o / E E E E E E E E E E E E z o o l   m o o M E E E E E E E E E E E E E o o N                       ",
"                        b o o k Q Q Q Q Q Q Q Q Q Q Q Q Y o o !   p o o a Q Q Q Q Q Q Q Q Q Q Q Q ~ o o i                       ",
"                        ( o o o o o o o o o o o o o o o o o ^       r o o o o o o o o o o o o o o o o o )                       ",
"                          h o o o o o o o o o o o o o o o ^ _       ` r o o o o o o o o o o o o o o o '                         ",
"                            ] [ { { { { { { { { { { { { }               | { { { { { { { { { { { {  ...                          ",
"                              X.B B B B B B B B B B B B o.              K B B B B B B B B B B B B B                             ",
"                              7 j j j j j j j j j j j j O.              +.j j j j j j j j j j j j @.                            ",
"                                                                                                                                ",
"                                                                                                                                "
};
